<mxfile host="app.diagrams.net" modified="2023-06-06T01:45:52.468Z" agent="Mozilla/5.0 (Windows NT 10.0; Win64; x64) AppleWebKit/537.36 (KHTML, like Gecko) Chrome/114.0.0.0 Safari/537.36" etag="LDO-WD9cb-tACDL-uyyC" version="21.3.7" type="google">
  <diagram name="Página-1" id="orQ0TGup2PF4q-qUBL3C">
    <mxGraphModel grid="1" page="1" gridSize="10" guides="1" tooltips="1" connect="1" arrows="1" fold="1" pageScale="1" pageWidth="827" pageHeight="1169" math="0" shadow="0">
      <root>
        <mxCell id="0" />
        <mxCell id="1" parent="0" />
        <mxCell id="qiyhqtTLzbqbnb7DX4Am-1" value="Cliente&lt;br&gt;" style="shape=umlActor;verticalLabelPosition=bottom;verticalAlign=top;html=1;outlineConnect=0;" vertex="1" parent="1">
          <mxGeometry x="30" y="245" width="30" height="60" as="geometry" />
        </mxCell>
        <mxCell id="qiyhqtTLzbqbnb7DX4Am-2" value="Recepcionista&lt;br&gt;" style="shape=umlActor;verticalLabelPosition=bottom;verticalAlign=top;html=1;outlineConnect=0;" vertex="1" parent="1">
          <mxGeometry x="740" y="180" width="30" height="60" as="geometry" />
        </mxCell>
        <mxCell id="qiyhqtTLzbqbnb7DX4Am-3" value="Medico&lt;br&gt;" style="shape=umlActor;verticalLabelPosition=bottom;verticalAlign=top;html=1;outlineConnect=0;" vertex="1" parent="1">
          <mxGeometry x="740" y="330" width="30" height="60" as="geometry" />
        </mxCell>
        <mxCell id="qiyhqtTLzbqbnb7DX4Am-8" value="" style="endArrow=none;html=1;rounded=0;entryX=0;entryY=0.5;entryDx=0;entryDy=0;" edge="1" parent="1" target="fQimw2xbUIu7GJR2rqsQ-8">
          <mxGeometry width="50" height="50" relative="1" as="geometry">
            <mxPoint x="70" y="260" as="sourcePoint" />
            <mxPoint x="150" y="220" as="targetPoint" />
            <Array as="points" />
          </mxGeometry>
        </mxCell>
        <mxCell id="qiyhqtTLzbqbnb7DX4Am-9" value="" style="endArrow=none;html=1;rounded=0;exitX=1;exitY=0.5;exitDx=0;exitDy=0;" edge="1" parent="1" source="fQimw2xbUIu7GJR2rqsQ-8" target="qiyhqtTLzbqbnb7DX4Am-2">
          <mxGeometry width="50" height="50" relative="1" as="geometry">
            <mxPoint x="340" y="225" as="sourcePoint" />
            <mxPoint x="450" y="200" as="targetPoint" />
          </mxGeometry>
        </mxCell>
        <mxCell id="qiyhqtTLzbqbnb7DX4Am-12" value="" style="endArrow=none;html=1;rounded=0;exitX=1;exitY=0.5;exitDx=0;exitDy=0;" edge="1" parent="1" source="9GNHdy1SlivDMxvDZaxr-7" target="qiyhqtTLzbqbnb7DX4Am-2">
          <mxGeometry width="50" height="50" relative="1" as="geometry">
            <mxPoint x="470.0000000000043" y="265" as="sourcePoint" />
            <mxPoint x="440" y="220" as="targetPoint" />
          </mxGeometry>
        </mxCell>
        <mxCell id="Kes-GZkk2d7bYZSNTOp5-2" value="" style="endArrow=none;html=1;rounded=0;entryX=0;entryY=0.5;entryDx=0;entryDy=0;" edge="1" parent="1" target="9GNHdy1SlivDMxvDZaxr-7">
          <mxGeometry width="50" height="50" relative="1" as="geometry">
            <mxPoint x="70" y="290" as="sourcePoint" />
            <mxPoint x="300" y="290" as="targetPoint" />
          </mxGeometry>
        </mxCell>
        <mxCell id="9GNHdy1SlivDMxvDZaxr-14" style="rounded=0;orthogonalLoop=1;jettySize=auto;html=1;exitX=0;exitY=0.5;exitDx=0;exitDy=0;endArrow=none;endFill=0;" edge="1" parent="1" source="9GNHdy1SlivDMxvDZaxr-2">
          <mxGeometry relative="1" as="geometry">
            <mxPoint x="70" y="310" as="targetPoint" />
          </mxGeometry>
        </mxCell>
        <mxCell id="9GNHdy1SlivDMxvDZaxr-15" style="rounded=0;orthogonalLoop=1;jettySize=auto;html=1;exitX=1;exitY=1;exitDx=0;exitDy=0;endArrow=none;endFill=0;" edge="1" parent="1" source="9GNHdy1SlivDMxvDZaxr-2" target="qiyhqtTLzbqbnb7DX4Am-3">
          <mxGeometry relative="1" as="geometry" />
        </mxCell>
        <mxCell id="9GNHdy1SlivDMxvDZaxr-4" value="" style="endArrow=none;html=1;rounded=0;exitX=1;exitY=0.5;exitDx=0;exitDy=0;" edge="1" parent="1" source="9GNHdy1SlivDMxvDZaxr-2" target="qiyhqtTLzbqbnb7DX4Am-2">
          <mxGeometry width="50" height="50" relative="1" as="geometry">
            <mxPoint x="520" y="340" as="sourcePoint" />
            <mxPoint x="650" y="230" as="targetPoint" />
          </mxGeometry>
        </mxCell>
        <mxCell id="27DtF06cNjDdmKuHeres-3" value="" style="swimlane;startSize=0;points=[[0,0,0,0,0],[0,0.25,0,0,0],[0,0.5,0,0,0],[0,0.75,0,0,0],[0,1,0,0,0],[0.25,0,0,0,0],[0.25,1,0,0,0],[0.5,0,0,0,0],[0.5,1,0,0,0],[0.75,0,0,0,0],[0.75,1,0,0,0],[1,0,0,0,0],[1,0.25,0,0,0],[1,0.5,0,0,0],[1,0.75,0,0,0],[1,1,0,0,0]];" vertex="1" parent="1">
          <mxGeometry x="80" y="60" width="650" height="420" as="geometry" />
        </mxCell>
        <mxCell id="fQimw2xbUIu7GJR2rqsQ-18" style="rounded=0;orthogonalLoop=1;jettySize=auto;html=1;exitX=0.5;exitY=1;exitDx=0;exitDy=0;entryX=0.5;entryY=0;entryDx=0;entryDy=0;endArrow=none;endFill=0;dashed=1;" edge="1" parent="27DtF06cNjDdmKuHeres-3" source="fQimw2xbUIu7GJR2rqsQ-8" target="d9kYNU4cNGlCtrWW0rHL-1">
          <mxGeometry relative="1" as="geometry" />
        </mxCell>
        <mxCell id="fQimw2xbUIu7GJR2rqsQ-8" value="Fazer login" style="ellipse;whiteSpace=wrap;html=1;" vertex="1" parent="27DtF06cNjDdmKuHeres-3">
          <mxGeometry x="210" y="24" width="71" height="50" as="geometry" />
        </mxCell>
        <mxCell id="d9kYNU4cNGlCtrWW0rHL-1" value="Cadastrar Usuário" style="ellipse;whiteSpace=wrap;html=1;" vertex="1" parent="27DtF06cNjDdmKuHeres-3">
          <mxGeometry x="210" y="90" width="71" height="50" as="geometry" />
        </mxCell>
        <mxCell id="fQimw2xbUIu7GJR2rqsQ-23" style="rounded=0;orthogonalLoop=1;jettySize=auto;html=1;exitX=0;exitY=0.5;exitDx=0;exitDy=0;endArrow=none;endFill=0;" edge="1" parent="27DtF06cNjDdmKuHeres-3" source="qiyhqtTLzbqbnb7DX4Am-7">
          <mxGeometry relative="1" as="geometry">
            <mxPoint x="-10" y="210" as="targetPoint" />
          </mxGeometry>
        </mxCell>
        <mxCell id="fQimw2xbUIu7GJR2rqsQ-25" style="rounded=0;orthogonalLoop=1;jettySize=auto;html=1;exitX=1;exitY=1;exitDx=0;exitDy=0;endArrow=none;endFill=0;" edge="1" parent="27DtF06cNjDdmKuHeres-3" source="qiyhqtTLzbqbnb7DX4Am-7">
          <mxGeometry relative="1" as="geometry">
            <mxPoint x="660" y="323" as="targetPoint" />
          </mxGeometry>
        </mxCell>
        <mxCell id="qiyhqtTLzbqbnb7DX4Am-7" value="Gerenciar Usuário" style="ellipse;whiteSpace=wrap;html=1;" vertex="1" parent="27DtF06cNjDdmKuHeres-3">
          <mxGeometry x="281" y="150" width="71" height="50" as="geometry" />
        </mxCell>
        <mxCell id="d9kYNU4cNGlCtrWW0rHL-11" value="&lt;font style=&quot;font-size: 5px;&quot;&gt;&amp;lt;&amp;lt;extend&amp;gt;&amp;gt;&lt;/font&gt;" style="text;html=1;strokeColor=none;fillColor=none;align=center;verticalAlign=middle;whiteSpace=wrap;rounded=0;rotation=0;" vertex="1" parent="27DtF06cNjDdmKuHeres-3">
          <mxGeometry x="250" y="80" width="20" as="geometry" />
        </mxCell>
        <mxCell id="9GNHdy1SlivDMxvDZaxr-7" value="Verificar Agenda" style="ellipse;whiteSpace=wrap;html=1;" vertex="1" parent="27DtF06cNjDdmKuHeres-3">
          <mxGeometry x="281" y="210" width="70" height="50" as="geometry" />
        </mxCell>
        <mxCell id="Kes-GZkk2d7bYZSNTOp5-1" value="Agendar Consulta" style="ellipse;whiteSpace=wrap;html=1;" vertex="1" parent="27DtF06cNjDdmKuHeres-3">
          <mxGeometry x="281" y="290" width="70" height="50" as="geometry" />
        </mxCell>
        <mxCell id="9GNHdy1SlivDMxvDZaxr-12" value="" style="endArrow=none;dashed=1;html=1;rounded=0;exitX=0.5;exitY=1;exitDx=0;exitDy=0;" edge="1" parent="27DtF06cNjDdmKuHeres-3" source="9GNHdy1SlivDMxvDZaxr-7" target="Kes-GZkk2d7bYZSNTOp5-1">
          <mxGeometry width="50" height="50" relative="1" as="geometry">
            <mxPoint x="310" y="205" as="sourcePoint" />
            <mxPoint x="319" y="205" as="targetPoint" />
            <Array as="points" />
          </mxGeometry>
        </mxCell>
        <mxCell id="9GNHdy1SlivDMxvDZaxr-13" value="&lt;font style=&quot;font-size: 6px;&quot;&gt;&amp;lt;&amp;lt;extend&amp;gt;&amp;gt;&lt;/font&gt;" style="text;html=1;align=center;verticalAlign=middle;resizable=0;points=[];autosize=1;strokeColor=none;fillColor=none;fontSize=10;rotation=0;" vertex="1" parent="27DtF06cNjDdmKuHeres-3">
          <mxGeometry x="270" y="260" width="60" height="30" as="geometry" />
        </mxCell>
        <mxCell id="9GNHdy1SlivDMxvDZaxr-2" value="Cancelar&lt;br&gt;Consulta" style="ellipse;whiteSpace=wrap;html=1;" vertex="1" parent="27DtF06cNjDdmKuHeres-3">
          <mxGeometry x="281" y="360" width="70" height="50" as="geometry" />
        </mxCell>
        <mxCell id="9GNHdy1SlivDMxvDZaxr-6" value="" style="endArrow=none;html=1;rounded=0;entryX=1;entryY=1;entryDx=0;entryDy=0;" edge="1" parent="27DtF06cNjDdmKuHeres-3" target="9GNHdy1SlivDMxvDZaxr-7">
          <mxGeometry width="50" height="50" relative="1" as="geometry">
            <mxPoint x="660" y="300" as="sourcePoint" />
            <mxPoint x="570" y="163" as="targetPoint" />
          </mxGeometry>
        </mxCell>
        <mxCell id="fQimw2xbUIu7GJR2rqsQ-7" style="rounded=0;orthogonalLoop=1;jettySize=auto;html=1;exitX=1;exitY=1;exitDx=0;exitDy=0;endArrow=none;endFill=0;entryX=0;entryY=0.3333333333333333;entryDx=0;entryDy=0;entryPerimeter=0;" edge="1" parent="1" source="fQimw2xbUIu7GJR2rqsQ-8" target="qiyhqtTLzbqbnb7DX4Am-3">
          <mxGeometry relative="1" as="geometry">
            <mxPoint x="732" y="350" as="targetPoint" />
          </mxGeometry>
        </mxCell>
        <mxCell id="fQimw2xbUIu7GJR2rqsQ-24" style="rounded=0;orthogonalLoop=1;jettySize=auto;html=1;exitX=1;exitY=0.5;exitDx=0;exitDy=0;endArrow=none;endFill=0;" edge="1" parent="1" source="qiyhqtTLzbqbnb7DX4Am-7" target="qiyhqtTLzbqbnb7DX4Am-2">
          <mxGeometry relative="1" as="geometry" />
        </mxCell>
      </root>
    </mxGraphModel>
  </diagram>
</mxfile>
